# xmcd CD database file
#
# Track frame offsets:
#	150
#	28123
#	67051
#	83887
#	119021
#	150984
#	165054
#	194356
#	225081
#	247776
#	278478
#	296844
#
# Disc length: 4319 seconds
#
# Revision: 0
# Processed by: cddbd v1.5.2PL0 Copyright (c) Steve Scherf et al.
# Submitted via: CDex 1.51
#
DISCID=9210dd0c
DTITLE=Various Artist - Blue Note Highlights [CD3) Trumpet
DYEAR=2009
DGENRE=Jazz
TTITLE0=Donald Byrd - The Injuns
TTITLE1=Louis Smith - South Side
TTITLE2=Clifford Brown - Easy Living
TTITLE3=Blue Mitchell - Fungii Mama
TTITLE4=Lee Morgan - Candy
TTITLE5=Bud Powell - Wail
TTITLE6=Freddie Hubbard - Body And Soul
TTITLE7=Hank Mobley Quintet - Funk In Deep Freeze
TTITLE8=Kenny Dorham - Basheer's Dream
TTITLE9=Dizzy Reece - The Rebound
TTITLE10=Miles Davis - It Never Entered My Mind (Higher and Higher)
TTITLE11=Larry Young - Beyond All Limits
EXTD=YEAR: 2009
EXTT0=
EXTT1=
EXTT2=
EXTT3=
EXTT4=
EXTT5=
EXTT6=
EXTT7=
EXTT8=
EXTT9=
EXTT10=
EXTT11=
PLAYORDER=
